# xmcd
#
# Track frame offsets: 
#        150
#        14777
#        29675
#        45525
#        58162
#        74205
#        88916
#        107749
#        123370
#        141481
#        156611
#        170648
#        185955
#
# Disc length: 2729 seconds
#
# Revision: 0
# Processed by: cddbd v1.5.2PL0 Copyright (c) Steve Scherf et al.
# Submitted via: ExactAudioCopy v0.99pb5
#
DISCID=d90aa70d
DTITLE=Adam Harvey - Falling Into Place
DYEAR=2011
DGENRE=Country
TTITLE0=Built to last
TTITLE1=You don't know my love
TTITLE2=Everything I own has got a dent
TTITLE3=Hair of the dog
TTITLE4=Dig two graves
TTITLE5=Falling into place
TTITLE6=The Bay Hotel
TTITLE7=Bordertown
TTITLE8=I wouldn't be me
TTITLE9=A good woman can
TTITLE10=One more beer
TTITLE11=Hooked
TTITLE12=Closing Time
EXTD=
EXTT0=
EXTT1=
EXTT2=
EXTT3=
EXTT4=
EXTT5=
EXTT6=
EXTT7=
EXTT8=
EXTT9=
EXTT10=
EXTT11=
EXTT12=
PLAYORDER=
